<?xml version="1.0" standalone="no"?>
<!DOCTYPE svg PUBLIC "-//W3C//DTD SVG 20010904//EN"
 "http://www.w3.org/TR/2001/REC-SVG-20010904/DTD/svg10.dtd">
<svg version="1.0" xmlns="http://www.w3.org/2000/svg"
 width="300.000000pt" height="300.000000pt" viewBox="0 0 300.000000 300.000000"
 preserveAspectRatio="xMidYMid meet">
<metadata>
Created by potrace 1.10, written by Peter Selinger 2001-2011
</metadata>
<g transform="translate(0.000000,300.000000) scale(0.100000,-0.100000)"
fill="#000000" stroke="none">
<path d="M570 2020 l0 -70 -70 0 -70 0 0 -70 0 -70 70 0 70 0 0 70 0 70 70 0
70 0 0 -70 0 -71 68 3 67 3 3 68 3 67 -71 0 -70 0 0 70 0 70 -70 0 -70 0 0
-70z"/>
<path d="M2240 2020 l0 -70 -70 0 -70 0 0 -70 0 -70 70 0 70 0 0 70 0 70 70 0
70 0 0 -70 0 -70 70 0 70 0 0 70 0 70 -70 0 -70 0 0 70 0 70 -70 0 -70 0 0
-70z"/>
<path d="M570 1255 l0 -415 70 0 70 0 0 415 0 415 -70 0 -70 0 0 -415z"/>
<path d="M1270 1600 l0 -70 -70 0 -70 0 0 -275 0 -275 70 0 70 0 0 -70 0 -70
210 0 210 0 0 70 0 71 68 -3 67 -3 3 -67 3 -68 70 0 70 0 -3 68 -3 67 -67 3
-68 3 0 274 0 275 -70 0 -70 0 0 70 0 70 -210 0 -210 0 0 -70z m420 -345 l0
-275 -210 0 -210 0 0 275 0 275 210 0 210 0 0 -275z"/>
<path d="M2240 1255 l0 -415 70 0 70 0 0 415 0 415 -70 0 -70 0 0 -415z"/>
</g>
</svg>
